#N canvas 15 23 1359 749 12;
#X obj 223 228 s pace;
#X obj 223 193 metro 4000;
#X obj 224 281 tgl 15 0 empty empty empty 17 7 0 10 -262144 -1 -1 0
1;
#X obj 387 156 r pace;
#X obj 387 187 random 5000;
#X obj 387 218 noise~;
#X obj 387 251 bp~ 0 50;
#X obj 387 284 bp~ 0 50;
#X obj 387 316 bp~ 0 50;
#X obj 488 187 random 5000;
#X obj 488 218 noise~;
#X obj 488 251 bp~ 0 50;
#X obj 488 284 bp~ 0 50;
#X obj 488 316 bp~ 0 50;
#X obj 590 188 random 5000;
#X obj 590 219 noise~;
#X obj 590 252 bp~ 0 50;
#X obj 590 285 bp~ 0 50;
#X obj 590 317 bp~ 0 50;
#X obj 388 439 lop~;
#X obj 389 477 dac~;
#X obj 230 549 delwrite~ tap1 4000;
#X obj 387 362 *~ 0.8;
#X obj 364 591 *~ 0.5;
#X obj 232 630 *~ 0.5;
#X obj 232 666 dac~;
#X obj 231 590 delread~ tap1;
#X floatatom 161 591 5 0 0 0 - - -;
#X obj 417 401 rev1~;
#X floatatom 482 401 5 0 0 0 - - -;
#X obj 906 49 r kick;
#X msg 906 81 1 10 \, 0 20 10;
#X obj 906 113 vline~;
#X obj 795 215 *~;
#X obj 795 247 lop~;
#X obj 795 282 *~ 0.5;
#X obj 796 320 dac~;
#X floatatom 850 247 5 0 0 0 - - -;
#X obj 797 180 osc~ 1100;
#X obj 921 354 vline~;
#X obj 810 456 *~;
#X obj 810 488 lop~;
#X obj 810 607 dac~;
#X floatatom 865 488 5 0 0 0 - - -;
#X obj 921 290 r snare;
#X obj 812 421 noise~;
#X obj 810 529 hip~;
#X floatatom 864 530 5 0 0 0 - - -;
#X obj 224 345 s snare;
#X obj 1030 282 random 50;
#X obj 224 310 metro 250;
#X msg 921 322 1 10 \, 0 \$1 10;
#X obj 811 640 s~ snare;
#X obj 809 569 *~ 0.2;
#X obj 78 59 tgl 15 0 empty empty empty 17 7 0 10 -262144 -1 -1 1 1
;
#X obj 79 99 s onOff;
#X obj 78 208 r onOff;
#X obj 172 98 s lopNum;
#X obj 449 438 r lopNum;
#X floatatom 171 52 5 0 0 0 - - -;
#X connect 1 0 0 0;
#X connect 2 0 50 0;
#X connect 3 0 4 0;
#X connect 3 0 9 0;
#X connect 3 0 14 0;
#X connect 4 0 6 1;
#X connect 4 0 7 1;
#X connect 4 0 8 1;
#X connect 5 0 6 0;
#X connect 6 0 7 0;
#X connect 7 0 8 0;
#X connect 8 0 22 0;
#X connect 9 0 11 1;
#X connect 9 0 12 1;
#X connect 9 0 13 1;
#X connect 10 0 11 0;
#X connect 11 0 12 0;
#X connect 12 0 13 0;
#X connect 13 0 22 0;
#X connect 14 0 16 1;
#X connect 14 0 17 1;
#X connect 14 0 18 1;
#X connect 15 0 16 0;
#X connect 16 0 17 0;
#X connect 17 0 18 0;
#X connect 18 0 22 0;
#X connect 19 0 20 0;
#X connect 19 0 20 1;
#X connect 19 0 21 0;
#X connect 22 0 19 0;
#X connect 22 0 28 0;
#X connect 23 0 21 0;
#X connect 24 0 25 0;
#X connect 24 0 25 1;
#X connect 26 0 23 0;
#X connect 26 0 24 0;
#X connect 27 0 26 0;
#X connect 28 0 19 0;
#X connect 29 0 28 1;
#X connect 30 0 31 0;
#X connect 31 0 32 0;
#X connect 32 0 33 1;
#X connect 33 0 34 0;
#X connect 34 0 35 0;
#X connect 35 0 36 0;
#X connect 35 0 36 1;
#X connect 37 0 34 1;
#X connect 38 0 33 0;
#X connect 39 0 40 1;
#X connect 40 0 41 0;
#X connect 41 0 46 0;
#X connect 43 0 41 1;
#X connect 44 0 51 0;
#X connect 44 0 49 0;
#X connect 45 0 40 0;
#X connect 46 0 53 0;
#X connect 47 0 46 1;
#X connect 49 0 51 0;
#X connect 50 0 48 0;
#X connect 51 0 39 0;
#X connect 53 0 42 0;
#X connect 53 0 42 1;
#X connect 53 0 52 0;
#X connect 54 0 55 0;
#X connect 56 0 1 0;
#X connect 58 0 19 1;
#X connect 59 0 57 0;
